<svg width="477" height="449" viewBox="0 0 477 449" fill="none" xmlns="http://www.w3.org/2000/svg">
<path d="M168.63 412.084C169.024 399.086 166.989 389.272 165.676 386.482C171.584 382.543 207.524 362.358 225.741 352.019C239.526 344.195 258.235 333.262 268.081 330.356C293.19 322.947 299.098 336.921 299.591 344.634C298.114 362.85 290.236 374.666 284.821 381.066C274.482 389.928 272.512 388.451 262.173 392.39C256.614 394.508 197.678 407.16 168.63 412.084Z" fill="url(#paint0_linear_5_52)"/>
<path d="M156.814 441.624C162.722 435.716 166.004 426.033 166.661 421.93C170.205 420.749 199.811 414.217 214.417 411.099C219.833 409.943 247.732 402.729 262.173 399.775C280.39 394.852 284.328 401.252 287.282 405.683C293.584 423.013 280.882 436.208 273.497 442.608C268.081 448.024 254.952 448.024 248.88 448.024C237.458 449.205 182.579 444.249 156.814 441.624Z" fill="url(#paint1_linear_5_52)"/>
<path d="M54.4084 387.467C76.465 374.863 100.852 350.378 109.55 339.218C115.064 342.763 136.136 362.358 145.49 372.204C158.783 383.036 160.26 396.329 160.26 408.637C160.26 437.193 143.029 442.951 126.781 437.193C87.8871 423.407 63.4345 399.447 54.4084 387.467Z" fill="url(#paint2_linear_5_52)"/>
<path d="M99.2108 301.308C76.7604 312.337 26.8377 309.842 4.68266 307.216C10.1968 341.089 31.9251 367.609 42.1 376.635C44.8571 380.18 49.4851 379.754 51.4544 379.097C69.1784 372.401 94.2874 343.157 104.626 329.371C101.476 325.827 99.7031 309.186 99.2108 301.308Z" fill="url(#paint3_linear_5_52)"/>
<path d="M111.027 263.399C67.7014 261.922 28.9712 226.474 14.037 207.273C0.645554 225.39 -0.73298 266.353 0.251688 284.077C1.0996 299.339 10.0636 299.513 16.0064 300.324C48.5004 304.755 81.9791 299.339 95.7645 293.431C98.9154 292.643 101.18 291.462 102.165 289.492C102.657 284.569 108.073 270.455 111.027 263.399Z" fill="url(#paint4_linear_5_52)"/>
<path d="M136.628 233.859C95.272 208.651 79.5174 155.577 73.117 131.453C46.7279 145.238 26.3453 176.091 19.945 189.549C17.135 195.457 19.1244 197.918 20.4373 199.888C42.8877 234.154 82.6355 250.27 99.7031 254.044C110.534 256.44 115.786 254.865 117.427 252.567C122.153 247.053 132.033 237.633 136.628 233.859Z" fill="url(#paint5_linear_5_52)"/>
<path d="M170.107 224.012C127.175 181.08 148.28 125.053 163.707 102.405C126.683 100.436 97.898 113.237 88.8718 120.129C82.4246 125.053 83.5494 130.468 83.9485 133.915C89.3642 180.686 122.515 214.493 138.598 224.997C144.506 228.855 148.444 227.458 151.398 226.966C157.306 224.997 164.363 224.176 170.107 224.012Z" fill="url(#paint6_linear_5_52)"/>
<path d="M112.504 284.569L109.55 301.308C139.09 301.308 149.921 320.017 152.383 332.325C153.752 339.173 157.761 336.02 157.799 332.325C158.192 293.333 127.602 283.748 112.504 284.569Z" fill="#F29032"/>
<path d="M127.274 256.014L116.443 274.23C152.383 271.768 173.061 294.908 176.965 313.212C178.701 321.351 183.848 317.616 183.892 313.212C184.36 266.733 145.202 255.036 127.274 256.014Z" fill="#F38E2A"/>
<path d="M211.463 292.589C208.017 245.182 179.953 235.336 160.26 233.366L153.367 236.32L147.459 239.767L141.551 243.705L136.136 247.644C172.568 246.167 197.678 269.307 204.535 292.589C206.887 300.572 211.782 296.982 211.463 292.589Z" fill="#F39231"/>
<path d="M190.785 100.436C225.248 97.9744 351.942 100.928 411.351 103.882L371.964 119.637H416.766C376.395 153.608 283.344 203.17 234.11 227.458C209.691 233.366 192.426 228.279 186.846 224.997C143.521 199.789 151.398 140.315 162.722 122.099C169.024 107.132 184.22 101.585 190.785 100.436Z" fill="url(#paint7_linear_5_52)"/>
<circle cx="309.93" cy="132.438" r="13.293" fill="url(#paint8_linear_5_52)"/>
<path d="M355.225 172.317L365.564 164.44C423.462 178.619 455.45 144.746 461.076 125.053C477.816 66.4651 439.414 32.494 418.736 23.1397C387.226 6.40034 336.516 12.3083 305.006 17.2317C281.768 23.9274 236.572 30.6762 216.386 27.5707C185.665 22.8443 173.717 7.2209 171.584 0C196.693 26.586 232.633 23.1397 254.788 19.6934C273.694 15.3608 313.868 8.04145 331.592 4.92334C408.397 -5.90801 443.845 23.1397 459.599 45.2947C485.157 81.2351 477.816 118.16 467.477 136.869C442.368 184.625 383.288 180.03 355.225 172.317Z" fill="url(#paint9_linear_5_52)"/>
<path d="M441.383 96.9898C446.799 126.037 427.433 142.449 415.781 148.193C423.659 150.162 434.49 140.315 438.921 134.899C461.076 104.867 443.845 69.9114 432.029 59.5724C409.381 33.4787 369.994 31.1811 350.793 31.5093C330.115 31.8628 288.267 39.7149 264.143 44.31C238.049 50.7104 210.478 55.6337 191.277 55.6337C161.737 57.6031 135.479 44.1459 124.32 35.9404C130.228 47.3625 152.008 56.9948 163.707 59.5724C192.754 65.9727 224.756 61.4479 255.281 55.6337C266.571 53.4831 286.199 50.218 302.052 46.7717C313.376 44.31 344.885 41.356 364.579 41.356C412.499 44.1424 438.921 78.2811 441.383 96.9898Z" fill="white"/>
<defs>
<linearGradient id="paint0_linear_5_52" x1="269.066" y1="327.894" x2="194.231" y2="402.729" gradientUnits="userSpaceOnUse">
<stop offset="0.379806" stop-color="#F49C3A"/>
<stop offset="1" stop-color="#EA7D27"/>
</linearGradient>
<linearGradient id="paint1_linear_5_52" x1="253.311" y1="397.806" x2="222.787" y2="459.84" gradientUnits="userSpaceOnUse">
<stop stop-color="#F49C3A"/>
<stop offset="1" stop-color="#E77920"/>
</linearGradient>
<linearGradient id="paint2_linear_5_52" x1="107.334" y1="339.218" x2="107.334" y2="439.202" gradientUnits="userSpaceOnUse">
<stop offset="0.427884" stop-color="#65BCA7"/>
<stop offset="1" stop-color="#266D73"/>
</linearGradient>
<linearGradient id="paint3_linear_5_52" x1="54.6546" y1="301.308" x2="54.6546" y2="379.542" gradientUnits="userSpaceOnUse">
<stop offset="0.331729" stop-color="#89D0C0"/>
<stop offset="1" stop-color="#3D9388"/>
</linearGradient>
<linearGradient id="paint4_linear_5_52" x1="55.5134" y1="207.273" x2="55.5134" y2="301.948" gradientUnits="userSpaceOnUse">
<stop stop-color="white"/>
<stop offset="1" stop-color="#94B0BC"/>
</linearGradient>
<linearGradient id="paint5_linear_5_52" x1="77.5739" y1="131.453" x2="77.5739" y2="255.24" gradientUnits="userSpaceOnUse">
<stop stop-color="white"/>
<stop offset="1" stop-color="#95B2BD"/>
</linearGradient>
<linearGradient id="paint6_linear_5_52" x1="126.861" y1="102.202" x2="126.861" y2="227.62" gradientUnits="userSpaceOnUse">
<stop stop-color="white"/>
<stop offset="1" stop-color="#8DA9B4"/>
</linearGradient>
<linearGradient id="paint7_linear_5_52" x1="316.014" y1="86.7489" x2="256.116" y2="258.181" gradientUnits="userSpaceOnUse">
<stop offset="0.331729" stop-color="#6BBFAB"/>
<stop offset="1" stop-color="#1D636B"/>
</linearGradient>
<linearGradient id="paint8_linear_5_52" x1="309.93" y1="119.145" x2="309.93" y2="145.731" gradientUnits="userSpaceOnUse">
<stop offset="0.620194" stop-color="#F9BA63"/>
<stop offset="1" stop-color="#C09A66"/>
</linearGradient>
<linearGradient id="paint9_linear_5_52" x1="324.292" y1="0" x2="324.292" y2="177.168" gradientUnits="userSpaceOnUse">
<stop stop-color="white"/>
<stop offset="1" stop-color="#FC973C"/>
</linearGradient>
</defs>
</svg>
